<?xml version="1.0" encoding="UTF-8"?>
<svg id="Layer_1" data-name="Layer 1" xmlns="http://www.w3.org/2000/svg" viewBox="0 0 1080 1080">
  <defs>
    <style>
      .cls-1 {
        fill: #14213d;
      }

      .cls-2 {
        stroke: #ffd932;
        stroke-miterlimit: 10;
        stroke-width: .25px;
      }

      .cls-2, .cls-3 {
        fill: #ffd932;
      }
    </style>
  </defs>
  <path class="cls-1" d="M540.16,311.79c-5.3,0-9.6-4.3-9.6-9.6v-111.51c0-5.3,4.3-9.6,9.6-9.6s9.6,4.3,9.6,9.6v111.51c0,5.3-4.3,9.6-9.6,9.6Z"/>
  <path class="cls-1" d="M847.69,732.87c-1.63,0-3.29-.42-4.81-1.3l-96.84-56.11c-4.59-2.66-6.15-8.53-3.49-13.12,2.66-4.59,8.53-6.15,13.12-3.49l96.84,56.12c4.59,2.66,6.15,8.53,3.49,13.12-1.78,3.07-5,4.79-8.32,4.79Z"/>
  <path class="cls-1" d="M232.71,730.38c-3.33,0-6.57-1.73-8.34-4.83-2.64-4.6-1.04-10.47,3.56-13.11l96.75-55.44c4.6-2.63,10.46-1.04,13.1,3.56,2.64,4.6,1.04,10.47-3.56,13.1l-96.75,55.44c-1.5,.86-3.15,1.27-4.76,1.27Z"/>
  <path class="cls-3" d="M652.58,490.37c-3.33,0-6.56-1.73-8.34-4.82-2.64-4.6-1.05-10.47,3.55-13.11l83.92-48.17-191.56-111.01-191.48,109.73,83.94,48.64c4.59,2.66,6.15,8.53,3.49,13.12-2.66,4.59-8.53,6.15-13.12,3.49l-98.36-57c-2.97-1.72-4.8-4.9-4.79-8.33,0-3.43,1.85-6.6,4.83-8.31l210.74-120.76c2.97-1.7,6.62-1.7,9.59,.02l210.76,122.13c2.97,1.72,4.79,4.89,4.79,8.33,0,3.43-1.84,6.6-4.82,8.31l-98.36,56.45c-1.51,.87-3.15,1.28-4.77,1.28Z"/>
  <path d="M652.56,490.33c-3.33,0-6.56-1.73-8.34-4.82-2.64-4.6-1.05-10.47,3.55-13.11l98.31-56.43c4.61-2.64,10.47-1.05,13.11,3.55,2.64,4.6,1.05,10.47-3.55,13.11l-98.31,56.43c-1.51,.87-3.15,1.28-4.77,1.28Z"/>
  <path class="cls-1" d="M540.22,909.07c-3.33,0-6.57-1.73-8.34-4.83-2.64-4.6-1.04-10.47,3.56-13.1l302.54-173.36-.02-348.97c0-5.3,4.3-9.6,9.6-9.6s9.6,4.3,9.6,9.6l.02,353.36c.04,.36,.06,.72,.06,1.08,0,3.44-1.79,6.64-4.77,8.35l-307.49,176.2c-1.51,.86-3.15,1.27-4.76,1.27Z"/>
  <path d="M540.28,788.71h-.01c-5.3,0-9.59-4.31-9.59-9.62l.15-101.18c0-5.3,4.31-9.59,9.6-9.59h.01c5.3,0,9.59,4.31,9.59,9.62l-.15,101.18c0,5.3-4.31,9.59-9.6,9.59Z"/>
  <path d="M427.78,489.55c-1.63,0-3.29-.42-4.81-1.3l-98.37-57c-4.59-2.66-6.15-8.53-3.49-13.12,2.66-4.59,8.53-6.16,13.12-3.49l98.36,57c4.59,2.66,6.15,8.53,3.49,13.12-1.78,3.07-5,4.79-8.32,4.79Z"/>
  <path class="cls-1" d="M540.2,909.07c-1.63,0-3.29-.42-4.81-1.3l-307.51-178.2c-2.96-1.72-4.79-4.88-4.79-8.31l-.02-354.39c0-5.3,4.3-9.6,9.6-9.6s9.6,4.3,9.6,9.6l.02,348.86,302.72,175.42c4.59,2.66,6.15,8.53,3.49,13.12-1.78,3.07-5,4.79-8.32,4.79Z"/>
  <path class="cls-1" d="M847.67,378.48c-1.63,0-3.29-.42-4.81-1.3l-302.72-175.42L237.45,375.21c-4.6,2.63-10.47,1.04-13.1-3.56-2.64-4.6-1.04-10.47,3.56-13.1l307.49-176.2c2.96-1.7,6.62-1.7,9.59,.02l307.51,178.19c4.59,2.66,6.15,8.53,3.49,13.12-1.78,3.07-5,4.79-8.32,4.79Z"/>
  <path d="M427.78,489.55c-1.63,0-3.29-.42-4.81-1.3l-98.37-57c-4.59-2.66-6.15-8.53-3.49-13.12,2.66-4.59,8.53-6.16,13.12-3.49l98.36,57c4.59,2.66,6.15,8.53,3.49,13.12-1.78,3.07-5,4.79-8.32,4.79Z"/>
  <path d="M652.62,490.43c-3.33,0-6.56-1.73-8.34-4.82-2.64-4.6-1.05-10.47,3.55-13.11l98.31-56.43c4.61-2.63,10.47-1.05,13.11,3.55,2.64,4.6,1.05,10.47-3.55,13.11l-98.31,56.43c-1.51,.86-3.15,1.28-4.77,1.28Z"/>
  <path class="cls-2" d="M540.2,797.6c-1.66,0-3.33-.43-4.82-1.3-2.96-1.72-4.79-4.88-4.78-8.31l.07-110.03c0-5.3,4.3-9.59,9.6-9.59h0c5.3,0,9.6,4.3,9.59,9.61l-.06,93.45,191.44-109.71-.02-220.84-83.93,48.17c-4.6,2.65-10.46,1.05-13.11-3.55-2.64-4.6-1.05-10.47,3.55-13.11l98.31-56.42c2.97-1.71,6.63-1.7,9.59,.02,2.97,1.72,4.79,4.88,4.79,8.31l.02,242.03c.03,.29,.04,.58,.04,.87,0,3.44-1.8,6.65-4.79,8.36l-210.74,120.76c-1.48,.85-3.12,1.27-4.77,1.27Z"/>
  <path class="cls-2" d="M540.2,797.56c-1.66,0-3.33-.43-4.81-1.29l-210.76-122.13c-2.96-1.72-4.79-4.88-4.79-8.31l-.02-242.89c0-3.43,1.83-6.6,4.81-8.32,2.97-1.72,6.64-1.71,9.61,.01l98.36,57c4.59,2.66,6.15,8.53,3.49,13.12-2.66,4.59-8.53,6.15-13.12,3.49l-83.94-48.64,.02,220.69,191.55,111v-96.71c0-5.3,4.29-9.6,9.59-9.6s9.6,4.3,9.6,9.6v113.37c0,3.43-1.83,6.6-4.8,8.32-1.48,.86-3.14,1.28-4.79,1.28Z"/>
  <path class="cls-1" d="M540.18,554.82c-5.3,0-9.6-4.3-9.6-9.6v-129.65c0-5.3,4.3-9.6,9.6-9.6s9.6,4.3,9.6,9.6v129.65c0,5.3-4.3,9.6-9.6,9.6Z"/>
  <path class="cls-1" d="M652.56,619.8c-1.63,0-3.29-.42-4.81-1.3l-112.13-64.98c-4.59-2.66-6.15-8.53-3.49-13.12,2.66-4.59,8.53-6.16,13.12-3.49l112.13,64.98c4.59,2.66,6.15,8.53,3.49,13.12-1.78,3.07-5,4.79-8.32,4.79Z"/>
  <path class="cls-1" d="M427.83,619.07c-3.34,0-6.58-1.74-8.35-4.85-2.63-4.61-1.02-10.47,3.58-13.1l112.61-64.25c4.61-2.63,10.47-1.02,13.1,3.58,2.63,4.61,1.02,10.47-3.58,13.1l-112.61,64.25c-1.5,.86-3.14,1.26-4.75,1.26Z"/>
  <g>
    <path class="cls-1" d="M540.21,684.19c-3.33,0-6.57-1.73-8.34-4.83-2.64-4.6-1.04-10.47,3.56-13.11l107.5-61.6v-124c0-5.3,4.29-9.6,9.59-9.6s9.6,4.3,9.6,9.6v128.89c.03,.25,.03,.51,.03,.77-.05,3.39-1.86,6.52-4.81,8.21l-112.37,64.39c-1.51,.86-3.15,1.27-4.77,1.27Z"/>
    <path class="cls-1" d="M540.19,684.19c-1.63,0-3.29-.42-4.81-1.3l-112.38-65.12c-2.96-1.72-4.79-4.88-4.79-8.31v-129.51c0-5.3,4.29-9.6,9.59-9.6s9.6,4.3,9.6,9.6v123.98s107.6,62.35,107.6,62.35c4.59,2.66,6.15,8.53,3.49,13.12-1.78,3.07-5,4.79-8.32,4.79Z"/>
    <path class="cls-1" d="M652.55,490.28c-1.63,0-3.29-.42-4.81-1.3l-107.59-62.35-107.57,61.64c-4.6,2.64-10.47,1.04-13.1-3.56-2.64-4.6-1.04-10.47,3.56-13.1l112.37-64.39c2.97-1.7,6.62-1.7,9.59,.02l112.38,65.12c4.59,2.66,6.15,8.53,3.49,13.12-1.78,3.07-5,4.79-8.32,4.79Z"/>
  </g>
  <polygon class="cls-3" points="550.04 207.5 551.77 208.5 837.95 374.34 837.95 706.52 760.53 661.66 759.19 419.52 549.77 296.65 550.04 207.5"/>
  <polygon class="cls-3" points="530.56 296.63 530.13 207.5 242.28 372.44 242.3 704.21 319.83 659.78 321.12 418.13 530.56 296.63"/>
  <path class="cls-3" d="M324.2,406.59c.82,4.57,4.85,8.2,9.45,8.66s9.11-2.54,10.87-6.79l-2.74,.36c.98,1.89,.44,4.22-1.11,5.63h2.12c-.34-.37-.38-1.02-.37-1.66,.01-.86,.13-1.71,.13-2.57,0-2.06-.97-3.97-3.2-4.23-1.24-.14-2.55,.22-3.74,.56s-2.46,.81-3.64,1.33c-2.34,1.04-4.48,2.46-6.41,4.14-1.46,1.27,.67,3.38,2.12,2.12,1.66-1.45,3.54-2.63,5.54-3.55,.98-.45,2.01-.81,3.05-1.11,.92-.26,1.99-.64,2.95-.48,.23,.04,.29,.38,.32,.67,.08,.77-.03,1.55-.08,2.32-.1,1.66,.03,3.31,1.22,4.58,.57,.61,1.54,.53,2.12,0,2.57-2.33,3.16-6.22,1.58-9.26-.66-1.27-2.29-.73-2.74,.36-1.25,3.02-4.75,5-7.97,4.59s-5.97-3.22-6.55-6.46c-.14-.8-1.11-1.25-1.85-1.05-.84,.23-1.19,1.05-1.05,1.85h0Z"/>
  <path class="cls-3" d="M339.23,413.13l1.99,.4-.66-2.51c-2.35,2.04-4.7,4.07-7.05,6.11l2.51,1.46c1.69-5.2,4.59-9.93,8.43-13.82,1.36-1.37-.76-3.5-2.12-2.12-4.21,4.25-7.36,9.45-9.2,15.14-.49,1.52,1.45,2.37,2.51,1.46,2.35-2.04,4.7-4.07,7.05-6.11,.83-.72,.41-2.29-.66-2.51l-1.99-.4c-.79-.16-1.62,.23-1.85,1.05-.2,.74,.25,1.68,1.05,1.85h0Z"/>
  <path class="cls-3" d="M334.88,407.16c-.75,4.51-.36,9.15,1.29,13.43,.22,.57,.61,1,1.25,1.07,.56,.07,1.23-.18,1.49-.72,2.14-4.38,1.82-9.82-1.06-13.8-.36-.5-.86-.81-1.49-.72-.57,.09-1.1,.49-1.25,1.07-.84,3.35,.21,7.02,2.75,9.37,.6,.55,1.53,.59,2.12,0,.56-.56,.6-1.57,0-2.12-1.8-1.66-2.56-4.15-1.98-6.45l-2.74,.36c2.25,3.11,2.75,7.31,1.06,10.78l2.74,.36c-1.45-3.76-1.95-7.85-1.29-11.84,.13-.8-.21-1.61-1.05-1.85-.72-.2-1.71,.24-1.85,1.05h0Z"/>
  <path class="cls-3" d="M323.31,419.88c1.16,2.61,4.07,4.52,6.78,5.13,1.21,.27,2.52,.41,3.76,.3,.91-.08,1.85-.2,2.74-.38l-1.28,.19c.72,.02,.68-.01-.14-.09-1.33-.04-2.32-.8-2.95-2.29-1.91-2.53-2.66-3.2-2.24-2.01,.2,1.09,.92,2.23,1.58,3.09,1.29,1.66,2.97,2.9,5.03,3.46,3.8,1.03,7.61-.41,10.28-3.16,3.1-3.2,3.42-8.88,0-12.02s-8.72-3.41-12.02,0c-1.05,1.02-.38,.64,2-1.15h4.52l-.5-.13,3.75,2.19-.36-.35,2.19,3.75c-1.23-3.82-3.52-6.89-7.62-7.9-1.75-.43-3.38-.43-5.12-.2-.54,.07-1.08,.14-1.61,.22l1.28-.19h-.51c2.08,.05,3.8,1.03,5.15,2.94-1.81-4.08-8.07-5.35-11.63-3.05-4.22,2.72-4.99,7.27-3.05,11.63h0Z"/>
  <path class="cls-3" d="M341.72,413.7l3.57-2.2c-3.88-3.88-7.75-7.75-11.63-11.63-2.26,4.69-3.56,9.62-3.38,14.85,.16,4.44,3.8,8.71,8.5,8.5s8.67-3.74,8.5-8.5c-.03-.73,.02-1.46,0-2.18,.09-1,.06-.97-.08,.09,.05-.36,.12-.72,.2-1.07,.15-.71,.34-1.42,.56-2.11,.11-.35,.23-.69,.36-1.03-.4,.91-.39,.92,.02,.03,1.6-3.31,1.58-7.63-1.33-10.3-2.74-2.52-7-3.36-10.3-1.33l-3.57,2.2c-3.78,2.33-5.58,7.71-3.05,11.63s7.58,5.55,11.63,3.05h0Z"/>
  <path class="cls-3" d="M337.8,422.61c10.94,0,10.96-17,0-17s-10.96,17,0,17h0Z"/>
  <path class="cls-3" d="M337.8,422.61c10.94,0,10.96-17,0-17s-10.96,17,0,17h0Z"/>
  <path class="cls-3" d="M330.74,408.29c-3.14,1.29-6.28,2.56-9.42,3.86-3.64,1.5-7.01,2.85-9.12,6.42-3.81,6.43-4.17,14.42,.98,20.15,3.07,3.41,8.9,3.13,12.02,0,3.39-3.39,3.08-8.6,0-12.02,1.94,2.16,.17,2.23,1.47,.91,2.26-2.29-2.79,.96-.24,.69,1.29-.13,2.92-1.2,4.12-1.69l4.71-1.93c4.25-1.74,7.26-5.65,5.94-10.46-1.1-4.02-6.18-7.69-10.46-5.94h0Z"/>
  <path class="cls-3" d="M324.96,446.45c10.94,0,10.96-17,0-17s-10.96,17,0,17h0Z"/>
  <path class="cls-3" d="M328.93,447.37c10.94,0,10.96-17,0-17s-10.96,17,0,17h0Z"/>
  <path class="cls-3" d="M561.23,308.36l-.6-.1c-.6-.32-.63-.33-.11-.04,.42,.27,.48,.3,.2,.07-.27-.25-.22-.2,.16,.14,1.1,.93,2.02,2.07,3,3.13,2.55,2.75,5.35,4.57,8.79,6.02,4.11,1.73,9.53-1.86,10.46-5.94,1.13-4.98-1.53-8.6-5.94-10.46,.62,.26,1.31,.92,.22-.1-.42-.39-.82-.81-1.22-1.22-1.09-1.15-2.1-2.39-3.29-3.44-3.43-3.04-7.07-4.81-11.68-5.05s-8.7,4.08-8.5,8.5c.22,4.8,3.74,8.25,8.5,8.5h0Z"/>
  <path class="cls-3" d="M744.83,427.09c3.92-2.56,7.83-5.11,11.75-7.67l-12.49-5.08c1.62,7.48,5.85,13.7,9.41,20.33,1.3,2.43,2.57,5,2.96,7.77,.66,4.67-.77,9.53-.47,14.25,.71,10.86,17.71,10.94,17,0-.31-4.78,.77-9.48,.47-14.25-.28-4.43-1.57-8.46-3.37-12.48-3.05-6.83-8.01-12.73-9.61-20.14-1.13-5.21-8.05-7.97-12.49-5.08-3.92,2.56-7.83,5.11-11.75,7.67-9.13,5.96-.62,20.68,8.58,14.68h0Z"/>
  <polygon class="cls-3" points="750.94 678.3 828.47 723.22 540 888.25 251.5 721.07 328.99 676.67 540.2 797.56 750.94 678.3"/>
  <polygon class="cls-1" points="662.12 486.45 741.24 440.88 741.26 661.72 549.82 771.42 550.04 680.02 660.87 615.01 662.12 486.45"/>
  <polygon class="cls-1" points="652.74 469.69 731.71 424.27 540.15 313.27 348.66 422.99 427.83 468.87 540.18 405.96 652.74 469.69"/>
  <polygon class="cls-1" points="339.03 439.61 418.21 485.49 419.48 614.22 531.87 679.36 530.6 771.3 339.05 660.3 339.03 439.61"/>
  <polygon class="cls-2" points="447.08 609.53 540.19 556.17 633.34 610.15 540.36 663.58 447.08 609.53"/>
  <polygon class="cls-2" points="437.39 485.53 530.68 432.71 530.56 539.79 437.42 592.93 437.39 485.53"/>
  <polygon class="cls-2" points="550.03 432.71 642.91 486.19 642.91 593.5 549.77 539.53 550.03 432.71"/>
</svg>